<?xml version="1.0" encoding="UTF-8"?>
<svg width="250px" height="73px" viewBox="0 0 250 73" version="1.1" xmlns="http://www.w3.org/2000/svg" xmlns:xlink="http://www.w3.org/1999/xlink">
    <!-- Generator: Sketch 42 (36781) - http://www.bohemiancoding.com/sketch -->
    <title>icon-apple</title>
    <desc>Created with Sketch.</desc>
    <defs>
        <path d="M0,9.99374426 C0,4.47435171 4.47203547,0 9.99330877,0 L240.006691,0 C245.525843,0 250,4.4755821 250,9.99374426 L250,62.4268907 C250,67.9462832 245.527543,72.4206349 239.999605,72.4206349 L141.50479,72.4206349 L10.0067207,72.4206349 C4.48016147,72.4206349 0,67.9450528 0,62.4268907 L0,9.99374426 Z" id="path-1"></path>
        <mask id="mask-2" maskContentUnits="userSpaceOnUse" maskUnits="objectBoundingBox" x="0" y="0" width="250" height="72.4206349" fill="white">
            <use xlink:href="#path-1"></use>
        </mask>
    </defs>
    <g id="Sections" stroke="none" stroke-width="1" fill="none" fill-rule="evenodd">
        <g id="HEADERS" transform="translate(-229.000000, -1401.000000)">
            <g id="Header_02" transform="translate(0.000000, 904.000000)">
                <g id="Badge-/apple-outline--black" transform="translate(229.000000, 497.000000)">
                    <g id="Badge-/apple-outline--white">
                        <g id="Apple-badge--outline">
                            <use id="bg" stroke="#282828" mask="url(#mask-2)" stroke-width="4" xlink:href="#path-1"></use>
                            <g id="Apple" transform="translate(25.233077, 9.141455)" fill="#282828">
                                <path d="M31.9375033,25.5652574 C31.8845861,19.6303949 36.78592,16.7420284 37.0095702,16.6079185 C34.2339115,12.551595 29.9316407,11.9971408 28.4190066,11.9521039 C24.8056582,11.5717923 21.3011396,14.11988 19.4600193,14.11988 C17.5819567,14.11988 14.7473903,11.9891342 11.6921689,12.0521859 C7.76131712,12.1132359 4.08307023,14.3941046 2.06622476,17.9370074 C-2.09626472,25.161927 1.00788011,35.7776247 4.99664132,41.6174093 C6.99152115,44.4787537 9.32287469,47.6703686 12.3741023,47.557276 C15.359433,47.4361768 16.4746886,45.6517147 20.0770542,45.6517147 C23.6464713,45.6517147 24.6938331,47.557276 27.8059654,47.4862178 C31.0099541,47.4361768 33.0267996,44.6128636 34.9517887,41.7274995 C37.2581813,38.4518157 38.1837337,35.2211687 38.2206759,35.0560334 C38.1467914,35.0300121 32.0004049,32.6770843 31.9375033,25.5652574" id="Fill-3"></path>
                                <path d="M26.0586983,8.11095672 C27.6641872,6.09830771 28.7634678,3.36006421 28.4579457,0.581787903 C26.1345796,0.684872363 23.2281256,2.19310809 21.5537445,4.16172102 C20.0730604,5.89614207 18.751128,8.73947168 19.092594,11.4126619 C21.7025118,11.6078218 24.3833188,10.0925803 26.0586983,8.11095672" id="Fill-4"></path>
                                <path d="M75.176873,47.1469398 L71.0053975,47.1469398 L68.7199722,39.9490424 L60.7763966,39.9490424 L58.5988026,47.1469398 L54.5371554,47.1469398 L62.4088433,22.6408614 L67.2702397,22.6408614 L75.176873,47.1469398 L75.176873,47.1469398 L75.176873,47.1469398 Z M68.0310497,36.9285676 L65.9642823,30.5293246 C65.7456243,29.8757891 65.3342677,28.336528 64.7312109,25.912542 L64.6573265,25.912542 C64.4157044,26.9553964 64.0273119,28.4946576 63.4971411,30.5293246 L61.4653191,36.9285676 L68.0310497,36.9285676 L68.0310497,36.9285676 L68.0310497,36.9285676 Z" id="Fill-5"></path>
                                <path d="M95.3812714,38.0945229 C95.3812714,41.0989846 94.5675442,43.4749312 92.9380928,45.2193605 C91.4793744,46.7716323 89.6662103,47.546267 87.5035928,47.546267 C85.169244,47.546267 83.4898707,46.7125839 82.4704651,45.0402137 L82.4704651,54.3118101 L78.5535915,54.3118101 L78.5535915,35.2842204 C78.5535915,33.3966739 78.5036696,31.461088 78.4088179,29.476462 L81.8534302,29.476462 L82.0720882,32.2767563 L82.1449742,32.2767563 C83.4509316,30.1670278 85.4338301,29.1111627 88.0936699,29.1111627 C90.173417,29.1111627 91.9097013,29.9348375 93.298529,31.5831881 C94.6853599,33.234541 95.3812714,35.4043188 95.3812714,38.0945229 L95.3812714,38.0945229 L95.3812714,38.0945229 Z M91.3915118,38.2376402 C91.3915118,36.5182314 91.0051161,35.1000695 90.230328,33.9821536 C89.3836523,32.8202016 88.246431,32.2387251 86.820661,32.2387251 C85.8541727,32.2387251 84.9765454,32.56199 84.1917728,33.201514 C83.4050034,33.8460421 82.8908077,34.6877317 82.650184,35.7295853 C82.529373,36.2159838 82.4684682,36.6123085 82.4684682,36.9245644 L82.4684682,39.8729801 C82.4684682,41.1570321 82.861853,42.2409202 83.6476239,43.1286475 C84.4343934,44.0123716 85.4557958,44.4567356 86.7118312,44.4567356 C88.1875231,44.4567356 89.3357272,43.8842666 90.1564435,42.7473351 C90.9801552,41.6074011 91.3915118,40.1051703 91.3915118,38.2376402 L91.3915118,38.2376402 L91.3915118,38.2376402 Z" id="Fill-6"></path>
                                <path d="M115.657557,38.0945229 C115.657557,41.0989846 114.84383,43.4749312 113.214379,45.2193605 C111.753663,46.7716323 109.942496,47.546267 107.777882,47.546267 C105.443533,47.546267 103.76416,46.7125839 102.744754,45.0402137 L102.744754,54.3118101 L98.8278806,54.3118101 L98.8278806,35.2842204 C98.8278806,33.3966739 98.7779587,31.461088 98.6831071,29.476462 L102.126721,29.476462 L102.345379,32.2767563 L102.419263,32.2767563 C103.723224,30.1670278 105.706122,29.1111627 108.367959,29.1111627 C110.445709,29.1111627 112.181994,29.9348375 113.573817,31.5831881 C114.959649,33.234541 115.657557,35.4043188 115.657557,38.0945229 L115.657557,38.0945229 L115.657557,38.0945229 Z M111.664802,38.2376402 C111.664802,36.5182314 111.277408,35.1000695 110.50262,33.9821536 C109.655945,32.8202016 108.521719,32.2387251 107.095949,32.2387251 C106.130459,32.2387251 105.251833,32.56199 104.464065,33.201514 C103.677296,33.8460421 103.165097,34.6877317 102.924473,35.7295853 C102.804661,36.2159838 102.740761,36.6123085 102.740761,36.9245644 L102.740761,39.8729801 C102.740761,41.1570321 103.136142,42.2409202 103.917919,43.1286475 C104.704689,44.0113707 105.726091,44.4567356 106.98612,44.4567356 C108.463809,44.4567356 109.611015,43.8842666 110.430733,42.7473351 C111.253446,41.6074011 111.664802,40.1051703 111.664802,38.2376402 L111.664802,38.2376402 L111.664802,38.2376402 Z" id="Fill-7"></path>
                                <path d="M138.3271,40.2723072 C138.3271,42.3590169 137.599239,44.0554068 136.1535,45.3644794 C134.562988,46.7936503 132.341462,47.5092366 129.493916,47.5092366 C126.864029,47.5092366 124.754329,47.0018209 123.163817,45.9829861 L124.069401,42.7103048 C125.786715,43.7311411 127.673763,44.2395577 129.727551,44.2395577 C131.204241,44.2395577 132.352445,43.904283 133.172163,43.2387377 C133.992879,42.5721916 134.40823,41.6814618 134.40823,40.5695508 C134.40823,39.5727341 134.064767,38.739051 133.390821,38.0594942 C132.712881,37.3819391 131.592634,36.7504217 130.018096,36.1699461 C125.737791,34.5696349 123.595142,32.2287169 123.595142,29.1501946 C123.595142,27.1395473 124.351959,25.4931984 125.862596,24.2061439 C127.372235,22.9200902 129.375102,22.2775637 131.866206,22.2775637 C134.090726,22.2775637 135.944826,22.6668827 137.415526,23.4415174 L136.433063,26.6421397 C135.048229,25.8905239 133.484674,25.5152164 131.73541,25.5152164 C130.35457,25.5152164 129.270266,25.8554952 128.494479,26.5330504 C127.842499,27.1395473 127.512016,27.8771516 127.512016,28.7538699 C127.512016,29.720662 127.888427,30.5243205 128.638254,31.1538363 C129.288238,31.7333111 130.475381,32.3658293 132.190698,33.0433844 C134.296405,33.8940814 135.842986,34.8848932 136.833436,36.0228255 C137.830876,37.1607579 138.3271,38.5799206 138.3271,40.2723072" id="Fill-8"></path>
                                <path d="M151.309794,32.422876 L146.992547,32.422876 L146.992547,41.001905 C146.992547,43.1836926 147.753357,44.2725848 149.277972,44.2725848 C149.977877,44.2725848 150.55797,44.2135364 151.017252,44.0904355 L151.126081,47.0718783 C150.354289,47.3601144 149.338877,47.5062342 148.079846,47.5062342 C146.533265,47.5062342 145.324156,47.0328463 144.451521,46.0860706 C143.58288,45.1402957 143.145564,43.553996 143.145564,41.3221674 L143.145564,32.4148695 L140.573586,32.4148695 L140.573586,29.4684554 L143.145564,29.4684554 L143.145564,26.2338052 L146.992547,25.0698515 L146.992547,29.4684554 L151.309794,29.4684554 L151.309794,32.422876" id="Fill-9"></path>
                                <path d="M170.750387,38.1655812 C170.750387,40.8818066 169.974601,43.1126344 168.42802,44.8560628 C166.809551,46.6515339 164.655919,47.546267 161.972117,47.546267 C159.382168,47.546267 157.32239,46.6865626 155.786792,44.9681547 C154.251193,43.2467443 153.483394,41.0769665 153.483394,38.4608231 C153.483394,35.7225796 154.276154,33.4797419 155.858679,31.7353127 C157.444199,29.9898826 159.57886,29.1171676 162.262663,29.1171676 C164.849617,29.1171676 166.926368,29.9788736 168.499907,31.6992832 C170.002557,33.3676501 170.750387,35.5214147 170.750387,38.1655812 L170.750387,38.1655812 L170.750387,38.1655812 Z M166.689738,38.2566558 C166.689738,36.637329 166.341283,35.2491917 165.641378,34.0872397 C164.819663,32.68409 163.644501,31.9825152 162.120885,31.9825152 C160.552338,31.9825152 159.34922,32.68409 158.529502,34.0872397 C157.8276,35.2491917 157.479145,36.6613487 157.479145,38.3297156 C157.479145,39.9500432 157.8276,41.3421838 158.529502,42.5011334 C159.376177,43.904283 160.55733,44.6058578 162.087936,44.6058578 C163.585594,44.6058578 164.758759,43.8892707 165.607431,42.4661047 C166.328304,41.2761297 166.689738,39.878985 166.689738,38.2566558 L166.689738,38.2566558 L166.689738,38.2566558 Z" id="Fill-10"></path>
                                <path d="M183.486467,32.9292909 C183.099073,32.8572319 182.683722,32.8202016 182.251399,32.8202016 C180.874552,32.8202016 179.80822,33.3396271 179.059391,34.385484 C178.408409,35.3062384 178.08192,36.4701921 178.08192,37.8753434 L178.08192,47.1469398 L174.165046,47.1469398 L174.165046,35.0410211 C174.165046,33.0063541 174.126107,31.149833 174.051224,29.4774628 L177.462888,29.4774628 L177.605665,32.8592335 L177.714495,32.8592335 C178.129845,31.6972815 178.779828,30.7595132 179.672432,30.0579384 C180.545067,29.426421 181.487593,29.1111627 182.504003,29.1111627 C182.865438,29.1111627 183.192926,29.137184 183.482473,29.1832217 L183.486467,32.9292909" id="Fill-11"></path>
                                <path d="M201.003069,37.4750154 C201.003069,38.1785918 200.957141,38.7720781 200.860293,39.256475 L189.109672,39.256475 C189.153603,41.001905 189.723711,42.3390005 190.815004,43.2597549 C191.804457,44.0814281 193.085453,44.493766 194.657993,44.493766 C196.397273,44.493766 197.98479,44.2175397 199.412557,43.6590821 L200.025598,46.3823133 C198.358206,47.1119111 196.388287,47.4752087 194.115841,47.4752087 C191.382117,47.4752087 189.236473,46.6685478 187.674916,45.0582285 C186.117352,43.4479091 185.336573,41.2821346 185.336573,38.5689116 C185.336573,35.9067304 186.062438,33.6879125 187.515166,31.9184628 C189.036786,30.0289146 191.091572,29.0841405 193.678525,29.0841405 C196.219551,29.0841405 198.142543,30.0289146 199.448501,31.9184628 C200.482883,33.4146886 201.003069,35.2712097 201.003069,37.4750154 L201.003069,37.4750154 L201.003069,37.4750154 Z M197.267911,36.4571814 C197.295868,35.2912261 197.038271,34.2874037 196.5081,33.4387083 C195.83016,32.3448121 194.786792,31.800366 193.38798,31.800366 C192.107982,31.800366 191.064614,32.3318014 190.270855,33.4006772 C189.618875,34.2493725 189.230483,35.2692081 189.111668,36.4531781 L197.267911,36.4571814 L197.267911,36.4571814 L197.267911,36.4571814 Z" id="Fill-12"></path>
                                <path d="M56.3443288,0.944084741 L61.03,0.944084741 C61.9785164,0.944084741 62.8102156,1.0521733 63.5250974,1.2673496 C64.2389808,1.48352672 64.8580126,1.77076206 65.3831912,2.13205807 C65.9083698,2.49435491 66.3446873,2.90969521 66.6921439,3.37907979 C67.0405989,3.84746355 67.3151694,4.32885796 67.5178524,4.82326304 C67.7195369,5.31766812 67.8653089,5.81207319 67.9541699,6.30647827 C68.0420325,6.80088335 68.0869622,7.25725727 68.0869622,7.67560002 C68.0869622,8.53830686 67.9282105,9.37198992 67.612704,10.1766492 C67.2961991,10.9813085 66.8279315,11.6978956 66.2088997,12.3254097 C65.5888695,12.9529239 64.820072,13.4563363 63.9035056,13.8366479 C62.9869392,14.2169595 61.9275961,14.4071153 60.7264747,14.4071153 L56.3443288,14.4071153 L56.3443288,0.944084741 L56.3443288,0.944084741 L56.3443288,0.944084741 Z M58.1654804,12.6957131 L60.4608901,12.6957131 C61.2316845,12.6957131 61.9625414,12.5916278 62.6514639,12.3824565 C63.3403863,12.1732851 63.9444415,11.8590276 64.4636295,11.4406848 C64.981819,11.0223421 65.3931756,10.499914 65.6967008,9.87239991 C66.0002261,9.24488578 66.1519887,8.51228554 66.1519887,7.67560002 C66.1519887,7.24524743 66.082098,6.74083415 65.9433151,6.16436183 C65.8035337,5.5868887 65.5419429,5.03944016 65.1555472,4.51901376 C64.77015,3.99958818 64.2359855,3.55822657 63.5530537,3.19793137 C62.8701219,2.83563453 61.984507,2.65548693 60.8972077,2.65548693 L58.1654804,2.65548693 L58.1654804,12.6957131 L58.1654804,12.6957131 L58.1654804,12.6957131 Z" id="Fill-50"></path>
                                <path d="M69.4518275,9.90042287 C69.4518275,9.24188332 69.5756338,8.62637902 69.8222481,8.05591162 C70.0688624,7.48544423 70.407333,6.98503423 70.8376599,6.55368081 C71.2669884,6.12332821 71.7731966,5.78405023 72.3552862,5.5368477 C72.9363773,5.28964516 73.5623982,5.16554348 74.2333487,5.16554348 C74.9033009,5.16554348 75.5293217,5.28964516 76.1104128,5.5368477 C76.6925024,5.78405023 77.1987106,6.12332821 77.6280391,6.55368081 C78.058366,6.98503423 78.3968367,7.48544423 78.6434509,8.05591162 C78.8900652,8.62637902 79.0138716,9.24188332 79.0138716,9.90042287 C79.0138716,10.5599632 78.8900652,11.1774692 78.6434509,11.7549423 C78.3968367,12.3314146 78.058366,12.8318246 77.6280391,13.2571731 C77.1987106,13.6815208 76.6925024,14.0167955 76.1104128,14.263998 C75.5293217,14.5112006 74.9033009,14.6353023 74.2333487,14.6353023 C73.5623982,14.6353023 72.9363773,14.5112006 72.3552862,14.263998 C71.7731966,14.0167955 71.2669884,13.6815208 70.8376599,13.2571731 C70.407333,12.8318246 70.0688624,12.3314146 69.8222481,11.7549423 C69.5756338,11.1774692 69.4518275,10.5599632 69.4518275,9.90042287 L69.4518275,9.90042287 L69.4518275,9.90042287 Z M71.2739775,9.90042287 C71.2739775,10.3567968 71.3428697,10.778142 71.4826511,11.1654593 C71.621434,11.5527767 71.8171279,11.8820465 72.0707313,12.1532687 C72.3233362,12.4264925 72.6328521,12.6416688 73.0002774,12.8007992 C73.3667042,12.9589288 73.7770624,13.0379936 74.2333487,13.0379936 C74.6886366,13.0379936 75.0989948,12.9589288 75.4654217,12.8007992 C75.832847,12.6416688 76.1423629,12.4264925 76.3959662,12.1532687 C76.6475727,11.8820465 76.844265,11.5527767 76.9830479,11.1654593 C77.1228293,10.778142 77.1917216,10.3567968 77.1917216,9.90042287 C77.1917216,9.44404895 77.1228293,9.02270374 76.9830479,8.6353864 C76.844265,8.2500707 76.6475727,7.9198001 76.3959662,7.64657624 C76.1423629,7.37535403 75.832847,7.15917691 75.4654217,7.00104735 C75.0989948,6.84191697 74.6886366,6.76285219 74.2333487,6.76285219 C73.7770624,6.76285219 73.3667042,6.84191697 73.0002774,7.00104735 C72.6328521,7.15917691 72.3233362,7.37535403 72.0707313,7.64657624 C71.8171279,7.9198001 71.621434,8.2500707 71.4826511,8.6353864 C71.3428697,9.02270374 71.2739775,9.44404895 71.2739775,9.90042287 L71.2739775,9.90042287 L71.2739775,9.90042287 Z" id="Fill-51"></path>
                                <polyline id="Fill-52" points="79.6968034 5.39373044 81.6128066 5.39373044 83.6326474 12.1252457 83.670588 12.1252457 85.8242195 5.39373044 87.6453711 5.39373044 89.9218105 12.1252457 89.9597512 12.1252457 91.8757544 5.39373044 93.6969059 5.39373044 90.7944456 14.4071153 89.0681457 14.4071153 86.6868703 7.67560002 86.6479312 7.67560002 84.4773262 14.4071153 82.6561747 14.4071153 79.6968034 5.39373044"></polyline>
                                <path d="M94.7961866,5.39373044 L96.5035161,5.39373044 L96.5035161,6.78186777 L96.5414568,6.78186777 C96.7571195,6.29947253 97.129537,5.91115437 97.6607062,5.61291002 C98.1928738,5.31466566 98.805915,5.16554348 99.5008281,5.16554348 C99.931155,5.16554348 100.345507,5.2315976 100.742885,5.36570748 C101.142261,5.49881654 101.489717,5.70498546 101.787252,5.98321341 C102.083788,6.26144137 102.320418,6.62073575 102.49814,7.05709327 C102.675862,7.49545243 102.764723,8.01087472 102.764723,8.60736344 L102.764723,14.4071153 L101.056395,14.4071153 L101.056395,9.08275294 C101.056395,8.66441018 100.999484,8.30611662 100.885662,8.00787226 C100.772839,7.71062872 100.620077,7.46943111 100.430374,7.28628105 C100.240671,7.10213017 100.023011,6.96902111 99.776397,6.88595305 C99.5287843,6.80388581 99.2741826,6.76285219 99.0075995,6.76285219 C98.6541523,6.76285219 98.3256661,6.81989893 98.0221409,6.93399241 C97.7176172,7.04908671 97.4520326,7.22823349 97.2243886,7.47543603 C96.9967447,7.72263856 96.8200211,8.03689604 96.6932194,8.41720764 C96.5674162,8.79751924 96.5035161,9.24788824 96.5035161,9.76731381 L96.5035161,14.4071153 L94.7961866,14.4071153 L94.7961866,5.39373044" id="Fill-53"></path>
                                <polygon id="Fill-54" points="105.098073 0.0313369064 106.805403 0.0313369064 106.805403 14.4071153 105.098073 14.4071153"></polygon>
                                <path d="M108.702436,9.90042287 C108.702436,9.24188332 108.825244,8.62637902 109.071858,8.05591162 C109.318472,7.48544423 109.656943,6.98503423 110.08727,6.55368081 C110.516598,6.12332821 111.022807,5.78405023 111.603898,5.5368477 C112.185987,5.28964516 112.812008,5.16554348 113.48196,5.16554348 C114.152911,5.16554348 114.778932,5.28964516 115.361021,5.5368477 C115.942112,5.78405023 116.448321,6.12332821 116.877649,6.55368081 C117.307976,6.98503423 117.646447,7.48544423 117.893061,8.05591162 C118.139675,8.62637902 118.262483,9.24188332 118.262483,9.90042287 C118.262483,10.5599632 118.139675,11.1774692 117.893061,11.7549423 C117.646447,12.3314146 117.307976,12.8318246 116.877649,13.2571731 C116.448321,13.6815208 115.942112,14.0167955 115.361021,14.263998 C114.778932,14.5112006 114.152911,14.6353023 113.48196,14.6353023 C112.812008,14.6353023 112.185987,14.5112006 111.603898,14.263998 C111.022807,14.0167955 110.516598,13.6815208 110.08727,13.2571731 C109.656943,12.8318246 109.318472,12.3314146 109.071858,11.7549423 C108.825244,11.1774692 108.702436,10.5599632 108.702436,9.90042287 L108.702436,9.90042287 L108.702436,9.90042287 Z M110.522589,9.90042287 C110.522589,10.3567968 110.59248,10.778142 110.731263,11.1654593 C110.871044,11.5527767 111.066738,11.8820465 111.319343,12.1532687 C111.572946,12.4264925 111.882462,12.6416688 112.249887,12.8007992 C112.616314,12.9589288 113.026672,13.0379936 113.48196,13.0379936 C113.937248,13.0379936 114.348605,12.9589288 114.71603,12.8007992 C115.082457,12.6416688 115.391973,12.4264925 115.644578,12.1532687 C115.898181,11.8820465 116.093875,11.5527767 116.233656,11.1654593 C116.372439,10.778142 116.44233,10.3567968 116.44233,9.90042287 C116.44233,9.44404895 116.372439,9.02270374 116.233656,8.6353864 C116.093875,8.2500707 115.898181,7.9198001 115.644578,7.64657624 C115.391973,7.37535403 115.082457,7.15917691 114.71603,7.00104735 C114.348605,6.84191697 113.937248,6.76285219 113.48196,6.76285219 C113.026672,6.76285219 112.616314,6.84191697 112.249887,7.00104735 C111.882462,7.15917691 111.572946,7.37535403 111.319343,7.64657624 C111.066738,7.9198001 110.871044,8.2500707 110.731263,8.6353864 C110.59248,9.02270374 110.522589,9.44404895 110.522589,9.90042287 L110.522589,9.90042287 L110.522589,9.90042287 Z" id="Fill-55"></path>
                                <path d="M120.064664,6.49663407 C120.544913,6.05226999 121.101043,5.71999776 121.734053,5.49881654 C122.366065,5.2766345 122.998076,5.16554348 123.631086,5.16554348 C124.288059,5.16554348 124.855172,5.24861154 125.328431,5.41274602 C125.80269,5.57788132 126.19208,5.79906253 126.495606,6.07829131 C126.799131,6.35752009 127.02378,6.67678167 127.168553,7.03907851 C127.314325,7.39937371 127.387211,7.77768366 127.387211,8.1700051 L127.387211,12.7717754 C127.387211,13.0890354 127.393202,13.380274 127.405183,13.6464921 C127.418163,13.9127102 127.438132,14.1669185 127.463093,14.4071153 L125.945466,14.4071153 C125.906527,13.9507414 125.888555,13.4943675 125.888555,13.0379936 L125.850615,13.0379936 C125.471208,13.6214716 125.021911,14.0338094 124.503721,14.2740062 C123.985532,14.514203 123.384472,14.6353023 122.700542,14.6353023 C122.284193,14.6353023 121.885816,14.5782555 121.506409,14.464162 C121.126004,14.3500686 120.794523,14.1799292 120.509968,13.9507414 C120.225413,13.7225544 120.000764,13.4403232 119.836022,13.1040477 C119.672278,12.768773 119.590406,12.379454 119.590406,11.9350899 C119.590406,11.3516119 119.719205,10.8642125 119.978799,10.4708903 C120.238393,10.0785688 120.59184,9.75730561 121.041137,9.51010307 C121.490434,9.26290054 122.015613,9.08675622 122.616673,8.97766684 C123.216734,8.8705791 123.85873,8.81653482 124.541662,8.81653482 L125.793704,8.81653482 L125.793704,8.43622322 C125.793704,8.20803626 125.748774,7.9798493 125.659913,7.75166234 C125.573049,7.52347539 125.439258,7.31730647 125.262534,7.13315559 C125.084812,6.95000553 124.863159,6.80388581 124.598573,6.69679807 C124.332988,6.58870951 124.016483,6.53466523 123.650056,6.53466523 C123.32157,6.53466523 123.03402,6.56669147 122.786407,6.62874231 C122.539793,6.69379561 122.315144,6.77185957 122.11346,6.86793829 C121.910777,6.96301619 121.727064,7.07410721 121.56332,7.20021053 C121.398578,7.32731467 121.240825,7.44741307 121.089062,7.56150655 L120.064664,6.49663407 L120.064664,6.49663407 L120.064664,6.49663407 Z M124.883128,10.0715631 C124.477762,10.0715631 124.064408,10.094582 123.640072,10.1376172 C123.216734,10.1826541 122.830339,10.2677238 122.48388,10.3948279 C122.135425,10.5219321 121.850871,10.6990772 121.629217,10.9272642 C121.408562,11.1554511 121.297736,11.4476906 121.297736,11.8019809 C121.297736,12.3224073 121.471464,12.6957131 121.819919,12.9239001 C122.166377,13.152087 122.63764,13.2661805 123.232709,13.2661805 C123.700977,13.2661805 124.098355,13.1871157 124.42784,13.0279854 C124.756326,12.8698558 125.021911,12.6646877 125.224594,12.4104794 C125.426278,12.157272 125.573049,11.8750407 125.659913,11.5637857 C125.748774,11.2545323 125.793704,10.9462798 125.793704,10.6420305 L125.793704,10.0715631 L124.883128,10.0715631 L124.883128,10.0715631 L124.883128,10.0715631 Z" id="Fill-56"></path>
                                <path d="M138.504822,14.4071153 L136.797493,14.4071153 L136.797493,13.1140559 L136.759552,13.1140559 C136.429069,13.5954503 135.977775,13.9707578 135.402674,14.2359751 C134.826575,14.5021932 134.2355,14.6353023 133.628449,14.6353023 C132.933536,14.6353023 132.30452,14.514203 131.741401,14.2740062 C131.178282,14.0338094 130.697034,13.6975339 130.299656,13.2661805 C129.900281,12.8358279 129.594758,12.3344171 129.379096,11.7639497 C129.164431,11.1934823 129.057599,10.5729739 129.057599,9.90042287 C129.057599,9.22887266 129.164431,8.60436098 129.379096,8.02788866 C129.594758,7.45041553 129.900281,6.95000553 130.299656,6.52465703 C130.697034,6.10030935 131.178282,5.76803711 131.741401,5.5268395 C132.30452,5.2866427 132.933536,5.16554348 133.628449,5.16554348 C134.27344,5.16554348 134.881489,5.301655 135.449601,5.57487886 C136.018711,5.84710189 136.455028,6.21740529 136.759552,6.68678987 L136.797493,6.68678987 L136.797493,0.0313369064 L138.504822,0.0313369064 L138.504822,14.4071153 L138.504822,14.4071153 L138.504822,14.4071153 Z M133.837123,13.0379936 C134.292411,13.0379936 134.703767,12.9589288 135.070194,12.8007992 C135.436621,12.6416688 135.747135,12.4264925 135.99974,12.1532687 C136.253344,11.8820465 136.449038,11.5527767 136.588819,11.1654593 C136.726604,10.778142 136.797493,10.3567968 136.797493,9.90042287 C136.797493,9.44404895 136.726604,9.02270374 136.588819,8.6353864 C136.449038,8.2500707 136.253344,7.9198001 135.99974,7.64657624 C135.747135,7.37535403 135.436621,7.15917691 135.070194,7.00104735 C134.703767,6.84191697 134.292411,6.76285219 133.837123,6.76285219 C133.381835,6.76285219 132.971477,6.84191697 132.60505,7.00104735 C132.236626,7.15917691 131.928109,7.37535403 131.674505,7.64657624 C131.421901,7.9198001 131.226207,8.2500707 131.086425,8.6353864 C130.946644,9.02270374 130.877752,9.44404895 130.877752,9.90042287 C130.877752,10.3567968 130.946644,10.778142 131.086425,11.1654593 C131.226207,11.5527767 131.421901,11.8820465 131.674505,12.1532687 C131.928109,12.4264925 132.236626,12.6416688 132.60505,12.8007992 C132.971477,12.9589288 133.381835,13.0379936 133.837123,13.0379936 L133.837123,13.0379936 L133.837123,13.0379936 Z" id="Fill-57"></path>
                                <path d="M145.163408,9.90042287 C145.163408,9.24188332 145.286215,8.62637902 145.53283,8.05591162 C145.779444,7.48544423 146.117915,6.98503423 146.547243,6.55368081 C146.97757,6.12332821 147.483778,5.78405023 148.064869,5.5368477 C148.646959,5.28964516 149.27298,5.16554348 149.942932,5.16554348 C150.613883,5.16554348 151.239903,5.28964516 151.820994,5.5368477 C152.403084,5.78405023 152.908294,6.12332821 153.338621,6.55368081 C153.768948,6.98503423 154.107418,7.48544423 154.354033,8.05591162 C154.600647,8.62637902 154.723455,9.24188332 154.723455,9.90042287 C154.723455,10.5599632 154.600647,11.1774692 154.354033,11.7549423 C154.107418,12.3314146 153.768948,12.8318246 153.338621,13.2571731 C152.908294,13.6815208 152.403084,14.0167955 151.820994,14.263998 C151.239903,14.5112006 150.613883,14.6353023 149.942932,14.6353023 C149.27298,14.6353023 148.646959,14.5112006 148.064869,14.263998 C147.483778,14.0167955 146.97757,13.6815208 146.547243,13.2571731 C146.117915,12.8318246 145.779444,12.3314146 145.53283,11.7549423 C145.286215,11.1774692 145.163408,10.5599632 145.163408,9.90042287 L145.163408,9.90042287 L145.163408,9.90042287 Z M146.983561,9.90042287 C146.983561,10.3567968 147.052453,10.778142 147.192234,11.1654593 C147.332016,11.5527767 147.52771,11.8820465 147.780314,12.1532687 C148.033918,12.4264925 148.342435,12.6416688 148.709861,12.8007992 C149.077286,12.9589288 149.487644,13.0379936 149.942932,13.0379936 C150.39822,13.0379936 150.809576,12.9589288 151.176003,12.8007992 C151.54243,12.6416688 151.852945,12.4264925 152.105549,12.1532687 C152.359153,11.8820465 152.554847,11.5527767 152.694628,11.1654593 C152.832413,10.778142 152.903302,10.3567968 152.903302,9.90042287 C152.903302,9.44404895 152.832413,9.02270374 152.694628,8.6353864 C152.554847,8.2500707 152.359153,7.9198001 152.105549,7.64657624 C151.852945,7.37535403 151.54243,7.15917691 151.176003,7.00104735 C150.809576,6.84191697 150.39822,6.76285219 149.942932,6.76285219 C149.487644,6.76285219 149.077286,6.84191697 148.709861,7.00104735 C148.342435,7.15917691 148.033918,7.37535403 147.780314,7.64657624 C147.52771,7.9198001 147.332016,8.2500707 147.192234,8.6353864 C147.052453,9.02270374 146.983561,9.44404895 146.983561,9.90042287 L146.983561,9.90042287 L146.983561,9.90042287 Z" id="Fill-58"></path>
                                <path d="M156.486697,5.39373044 L158.194026,5.39373044 L158.194026,6.78186777 L158.231967,6.78186777 C158.446631,6.29947253 158.820047,5.91115437 159.352215,5.61291002 C159.883384,5.31466566 160.496425,5.16554348 161.191338,5.16554348 C161.621665,5.16554348 162.036017,5.2315976 162.433396,5.36570748 C162.832771,5.49881654 163.180228,5.70498546 163.477762,5.98321341 C163.774298,6.26144137 164.010928,6.62073575 164.18865,7.05709327 C164.366372,7.49545243 164.455233,8.01087472 164.455233,8.60736344 L164.455233,14.4071153 L162.746905,14.4071153 L162.746905,9.08275294 C162.746905,8.66441018 162.689994,8.30611662 162.576172,8.00787226 C162.463349,7.71062872 162.310588,7.46943111 162.120885,7.28628105 C161.93218,7.10213017 161.713522,6.96902111 161.466907,6.88595305 C161.220293,6.80388581 160.964693,6.76285219 160.69811,6.76285219 C160.344663,6.76285219 160.016176,6.81989893 159.712651,6.93399241 C159.408128,7.04908671 159.143541,7.22823349 158.914899,7.47543603 C158.687255,7.72263856 158.510531,8.03689604 158.384728,8.41720764 C158.257927,8.79751924 158.194026,9.24788824 158.194026,9.76731381 L158.194026,14.4071153 L156.486697,14.4071153 L156.486697,5.39373044" id="Fill-59"></path>
                                <path d="M176.3686,6.87694567 L173.920429,6.87694567 L173.920429,10.9652953 C173.920429,11.2185028 173.92642,11.4687078 173.939399,11.7169112 C173.952379,11.9641137 173.999306,12.1852949 174.081178,12.3824565 C174.165046,12.5786172 174.289851,12.7367467 174.461583,12.8568451 C174.632315,12.9779444 174.881925,13.0379936 175.210411,13.0379936 C175.413094,13.0379936 175.621768,13.018978 175.836432,12.9809468 C176.051096,12.9429157 176.24679,12.8738591 176.424512,12.7717754 L176.424512,14.331053 C176.222828,14.4451465 175.960238,14.5242112 175.637743,14.5682473 C175.315247,14.6132842 175.065638,14.6353023 174.887916,14.6353023 C174.230943,14.6353023 173.72174,14.5432268 173.361303,14.3590759 C173.000867,14.1759259 172.735283,13.9377307 172.56455,13.6464921 C172.393817,13.3552535 172.292974,13.0279854 172.261024,12.6676902 C172.229074,12.3053933 172.213099,11.9410948 172.213099,11.5737939 L172.213099,6.87694567 L170.241184,6.87694567 L170.241184,5.39373044 L172.213099,5.39373044 L172.213099,2.86465831 L173.920429,2.86465831 L173.920429,5.39373044 L176.3686,5.39373044 L176.3686,6.87694567" id="Fill-60"></path>
                                <path d="M178.189751,0.0313369064 L179.897081,0.0313369064 L179.897081,6.78186777 L179.935022,6.78186777 C180.149686,6.29947253 180.523102,5.91115437 181.054271,5.61291002 C181.58544,5.31466566 182.198481,5.16554348 182.894393,5.16554348 C183.323721,5.16554348 183.738073,5.2315976 184.13645,5.36570748 C184.534827,5.49881654 184.883282,5.70498546 185.180817,5.98321341 C185.477353,6.26144137 185.713983,6.62073575 185.891705,7.05709327 C186.068428,7.49545243 186.157289,8.01087472 186.157289,8.60736344 L186.157289,14.4071153 L184.448961,14.4071153 L184.448961,9.08275294 C184.448961,8.66441018 184.393049,8.30611662 184.278228,8.00787226 C184.165405,7.71062872 184.013642,7.46943111 183.822941,7.28628105 C183.634236,7.10213017 183.415578,6.96902111 183.168963,6.88595305 C182.922349,6.80388581 182.666749,6.76285219 182.400166,6.76285219 C182.046719,6.76285219 181.718232,6.81989893 181.414707,6.93399241 C181.111182,7.04908671 180.845597,7.22823349 180.616955,7.47543603 C180.390309,7.72263856 180.212587,8.03689604 180.086784,8.41720764 C179.959983,8.79751924 179.897081,9.24788824 179.897081,9.76731381 L179.897081,14.4071153 L178.189751,14.4071153 L178.189751,0.0313369064" id="Fill-61"></path>
                                <path d="M189.646831,10.527937 C189.646831,10.9212593 189.732697,11.278552 189.90343,11.6018169 C190.074163,11.9260825 190.298812,12.201308 190.576378,12.429495 C190.854942,12.657682 191.177437,12.8358279 191.544863,12.9619312 C191.91129,13.0890354 192.290696,13.152087 192.682084,13.152087 C193.214252,13.152087 193.67553,13.0279854 194.066918,12.7817836 C194.459304,12.5345811 194.81974,12.2083138 195.148227,11.8019809 L196.438209,12.790791 C195.489693,14.019798 194.162768,14.6353023 192.455438,14.6353023 C191.746547,14.6353023 191.104551,14.514203 190.529451,14.2740062 C189.953352,14.0338094 189.467112,13.7005364 189.068736,13.2751879 C188.670359,12.8508402 188.36284,12.3504302 188.148175,11.7729571 C187.932513,11.1964848 187.82568,10.5729739 187.82568,9.90042287 C187.82568,9.22887266 187.942497,8.60436098 188.17713,8.02788866 C188.410765,7.45041553 188.73326,6.95000553 189.143618,6.52465703 C189.554975,6.10030935 190.046207,5.76803711 190.614318,5.5268395 C191.183428,5.2866427 191.803458,5.16554348 192.47341,5.16554348 C193.270164,5.16554348 193.94411,5.30465746 194.49425,5.58388624 C195.044389,5.86311501 195.496682,6.22741349 195.850129,6.67678167 C196.204574,7.12815149 196.460175,7.6345664 196.618926,8.19902888 C196.77668,8.76249054 196.855556,9.33696122 196.855556,9.91943845 L196.855556,10.527937 L189.646831,10.527937 L189.646831,10.527937 L189.646831,10.527937 Z M195.035403,9.15881526 C195.021425,8.77850366 194.962517,8.42921748 194.854686,8.11295836 C194.746854,7.79669924 194.586106,7.52047293 194.371442,7.28628105 C194.155779,7.05108835 193.886201,6.86793829 193.564703,6.73482923 C193.242208,6.60071935 192.865797,6.53466523 192.43547,6.53466523 C192.018122,6.53466523 191.635721,6.61373001 191.288264,6.77185957 C190.939809,6.93098995 190.64527,7.13615805 190.405645,7.39036633 C190.166019,7.64357378 189.978313,7.92580502 189.845521,8.23706004 C189.713727,8.54831506 189.646831,8.85456598 189.646831,9.15881526 L195.035403,9.15881526 L195.035403,9.15881526 L195.035403,9.15881526 Z" id="Fill-62"></path>
                            </g>
                        </g>
                    </g>
                </g>
            </g>
        </g>
    </g>
</svg>