<?xml version="1.0" encoding="UTF-8"?>
<svg width="250px" height="73px" viewBox="0 0 250 73" version="1.1" xmlns="http://www.w3.org/2000/svg" xmlns:xlink="http://www.w3.org/1999/xlink">
    <!-- Generator: Sketch 42 (36781) - http://www.bohemiancoding.com/sketch -->
    <title>icon-google</title>
    <desc>Created with Sketch.</desc>
    <defs>
        <rect id="path-1" x="0" y="0" width="250" height="72.1925134" rx="10"></rect>
        <mask id="mask-2" maskContentUnits="userSpaceOnUse" maskUnits="objectBoundingBox" x="0" y="0" width="250" height="72.1925134" fill="white">
            <use xlink:href="#path-1"></use>
        </mask>
    </defs>
    <g id="Sections" stroke="none" stroke-width="1" fill="none" fill-rule="evenodd">
        <g id="HEADERS" transform="translate(-499.000000, -1401.000000)">
            <g id="Header_02" transform="translate(0.000000, 904.000000)">
                <g id="Badge-/-Google-outline--black" transform="translate(499.000000, 497.000000)">
                    <g id="Badge-/-Google-outline--white">
                        <g id="Google" transform="translate(24.929064, 10.125177)" fill="#282828">
                            <path d="M140.424017,41.1141042 L138.956556,42.4974268 C138.618661,42.6832317 138.281739,42.9001663 137.944817,43.052896 C136.925287,43.5149763 135.889203,43.6317124 134.968023,43.6317124 C133.987444,43.6317124 132.45182,43.5684803 130.885035,42.4361403 C128.706727,40.9030065 127.755361,38.2706078 127.755361,35.9747982 C127.755361,31.2226669 131.627042,28.8928092 134.784956,28.8928092 C135.889203,28.8928092 137.023637,29.1681118 137.944817,29.7508194 C139.47752,30.763505 139.873841,32.0797043 140.093912,32.784012 L132.881249,35.6956044 L130.519874,35.8784909 C131.284278,39.7745577 133.923176,42.0402105 136.838622,42.0402105 C138.294398,42.0402105 139.376248,41.5664565 140.367539,41.076165 C140.367539,41.076165 140.566187,40.9720753 140.424017,41.1141042 L140.424017,41.1141042 L140.424017,41.1141042 Z M136.073244,33.364774 C136.659449,33.1517306 136.964237,32.9678713 136.964237,32.5408118 C136.964237,31.3180013 135.576625,29.9035491 133.923176,29.9035491 C132.697208,29.9035491 130.396206,30.8568938 130.396206,34.1683073 C130.396206,34.6848645 130.457553,35.2354697 130.488714,35.7860749 L136.073244,33.364774 L136.073244,33.364774 L136.073244,33.364774 Z" id="Fill-15"></path>
                            <path d="M125.345297,40.8767408 C125.345297,42.0684217 125.558552,42.2532538 126.565422,42.3466427 C127.091255,42.4089019 127.615139,42.4361403 128.133181,42.4974268 L126.998747,43.1725505 L121.592415,43.1725505 C122.301314,42.2532538 122.423035,42.1618105 122.423035,41.5489461 L122.423035,40.8650672 L122.41135,22.6435377 L120.024657,22.6435377 L122.321763,21.5374633 L126.709539,21.5374633 C125.759147,22.0870957 125.474808,22.4227119 125.352114,23.4947383 L125.345297,40.8767408" id="Fill-16"></path>
                            <path d="M116.960225,30.3967591 C117.664255,30.9746027 119.134637,32.2022772 119.134637,34.531162 C119.134637,36.8016788 117.854139,37.8707867 116.561955,38.8834722 C116.165634,39.2823205 115.702123,39.7152168 115.702123,40.3835309 C115.702123,41.061573 116.165634,41.4292916 116.499635,41.7036214 L117.607777,42.5587132 C118.955465,43.6949444 120.18338,44.736814 120.18338,46.8516826 C120.18338,49.7360367 117.390628,52.6417923 112.112832,52.6417923 C107.667604,52.6417923 105.51851,50.5278964 105.51851,48.2593252 C105.51851,47.1551965 106.067712,45.5928786 107.882806,44.521825 C109.784565,43.360301 112.362116,43.2046529 113.740964,43.1141824 C113.310561,42.5587132 112.818811,41.9769784 112.818811,41.0265522 C112.818811,40.5070766 112.975586,40.197726 113.12652,39.8319529 C112.790571,39.8640553 112.452676,39.8971306 112.144967,39.8971306 C108.891624,39.8971306 107.052186,37.4719385 107.052186,35.0817672 C107.052186,33.672179 107.695844,32.1088883 109.01724,30.9746027 C110.766118,29.5368033 112.851919,29.2877663 114.509263,29.2877663 L120.831906,29.2877663 L118.865879,30.3967591 L116.960225,30.3967591 L116.960225,30.3967591 L116.960225,30.3967591 Z M114.785812,44.0023494 C114.534581,43.9692742 114.383648,43.9692742 114.080807,43.9692742 C113.802311,43.9692742 112.144967,44.0295879 110.861547,44.4595658 C110.18186,44.7086027 108.218754,45.4411216 108.218754,47.6182496 C108.218754,49.7905135 110.338636,51.3567226 113.617296,51.3567226 C116.561955,51.3567226 118.125819,49.9461616 118.125819,48.0472547 C118.125819,46.4849368 117.114079,45.6600018 114.785812,44.0023494 L114.785812,44.0023494 L114.785812,44.0023494 Z M115.669015,38.1791646 C116.377914,37.4719385 116.439261,36.4942738 116.439261,35.9388046 C116.439261,33.735411 115.123708,30.3014246 112.573422,30.3014246 C111.778832,30.3014246 110.916078,30.7012457 110.427249,31.3180013 C109.908233,31.9561586 109.753405,32.784012 109.753405,33.5807357 C109.753405,35.6333452 110.951133,39.0371748 113.58711,39.0371748 C114.355409,39.0371748 115.183107,38.6636193 115.669015,38.1791646 L115.669015,38.1791646 L115.669015,38.1791646 Z" id="Fill-17"></path>
                            <path d="M97.9406861,43.5684803 C93.0631073,43.5684803 90.4543963,39.7745577 90.4543963,36.3395985 C90.4543963,32.3267956 93.7350038,28.8928092 98.4003022,28.8928092 C102.909799,28.8928092 105.734685,32.4201845 105.734685,36.1236367 C105.734685,39.7405096 102.942906,43.5684803 97.9406861,43.5684803 L97.9406861,43.5684803 L97.9406861,43.5684803 Z M101.776338,41.0888114 C102.518346,40.1072555 102.697518,38.8834722 102.697518,37.6898458 C102.697518,34.9912967 101.410204,29.8432355 97.6066854,29.8432355 C96.5939719,29.8432355 95.5754158,30.2381926 94.8411985,30.8831594 C93.6424963,31.9561586 93.4292422,33.3034875 93.4292422,34.6255237 C93.4292422,37.6538522 94.9268897,42.6482109 98.6447167,42.6482109 C99.8453665,42.6482109 101.069387,42.0684217 101.776338,41.0888114 L101.776338,41.0888114 L101.776338,41.0888114 Z" id="Fill-18"></path>
                            <path d="M81.6136023,43.5684803 C76.7360235,43.5684803 74.1312076,39.7745577 74.1312076,36.3395985 C74.1312076,32.3267956 77.411815,28.8928092 82.0761397,28.8928092 C86.5836885,28.8928092 89.4046798,32.4201845 89.4046798,36.1236367 C89.4046798,39.7405096 86.6167964,43.5684803 81.6136023,43.5684803 L81.6136023,43.5684803 L81.6136023,43.5684803 Z M85.4502284,41.0888114 C86.1863932,40.1072555 86.3704344,38.8834722 86.3704344,37.6898458 C86.3704344,34.9912967 85.0792247,29.8432355 81.2786278,29.8432355 C80.262993,29.8432355 79.2551483,30.2381926 78.5180098,30.8831594 C77.3183338,31.9561586 77.1060535,33.3034875 77.1060535,34.6255237 C77.1060535,37.6538522 78.6095435,42.6482109 82.321528,42.6482109 C83.5192564,42.6482109 84.7423027,42.0684217 85.4502284,41.0888114 L85.4502284,41.0888114 L85.4502284,41.0888114 Z" id="Fill-19"></path>
                            <path d="M72.1817341,42.5052092 L68.0685593,43.4449346 C66.4014771,43.7075908 64.9057771,43.9391174 63.320491,43.9391174 C55.3872441,43.9391174 52.3656575,38.1052317 52.3656575,33.5398781 C52.3656575,27.9637846 56.6482671,22.7952946 63.9826498,22.7952946 C65.5338543,22.7952946 67.0276067,23.0229299 68.3879535,23.3925942 C70.542891,23.998649 71.5507357,24.7438143 72.1817341,25.1806018 L69.7921198,27.4482002 L68.7842751,27.6729172 L69.5029121,26.5289036 C68.5301229,25.5794501 66.7413204,23.8284089 63.3487301,23.8284089 C58.8109947,23.8284089 55.3872441,27.2740689 55.3872441,32.3044212 C55.3872441,37.708329 59.2969024,42.7902398 65.5640409,42.7902398 C67.4064005,42.7902398 68.3548456,42.4196027 69.2146783,42.0752313 L69.2146783,37.4437272 L64.8726692,37.6762266 L67.1746449,36.4407697 L73.2684536,36.4407697 L72.5235249,37.1577238 C72.321956,37.3289368 72.2956644,37.386332 72.2391861,37.6149402 C72.2089995,37.8766235 72.1817341,38.7093409 72.1817341,39.0021539 L72.1817341,42.5052092" id="Fill-20"></path>
                            <path d="M149.267733,41.2444595 L149.267733,49.051185 L147.715554,49.051185 L147.715554,29.1875678 L149.267733,29.1875678 L149.267733,31.4493294 C150.278498,29.9881828 152.125727,28.8286044 154.2719,28.8286044 C158.119238,28.8286044 160.711395,31.7450608 160.711395,36.3610001 C160.711395,40.9467825 158.119238,43.9245254 154.2719,43.9245254 C152.2455,43.9245254 150.431379,42.8816831 149.267733,41.2444595 L149.267733,41.2444595 L149.267733,41.2444595 Z M159.044313,36.3610001 C159.044313,32.8822648 157.229219,30.2284646 154.009958,30.2284646 C152.009849,30.2284646 150.099326,31.7985649 149.267733,33.1663226 L149.267733,39.5255207 C150.099326,40.8961969 152.009849,42.5227196 154.009958,42.5227196 C157.229219,42.5227196 159.044313,39.8465449 159.044313,36.3610001 L159.044313,36.3610001 L159.044313,36.3610001 Z" id="Fill-21"></path>
                            <polygon id="Fill-22" points="162.831277 23.7029176 164.382481 23.7029176 164.382481 43.5665347 162.831277 43.5665347"></polygon>
                            <path d="M181.795311,47.7670881 C182.12639,47.9149538 182.69312,48.006397 183.052439,48.006397 C184.001858,48.006397 184.662069,47.6182496 185.256065,46.2475734 L186.387577,43.6861892 L180.274293,29.1875678 L182.005644,29.1875678 L187.250331,41.7522615 L192.443409,29.1875678 L194.19813,29.1875678 L186.742027,46.7291098 C185.968859,48.5365734 184.751655,49.4052844 183.078731,49.4052844 C182.577243,49.4052844 181.916058,49.3157868 181.5285,49.1971051 L181.795311,47.7670881" id="Fill-23"></path>
                            <path d="M177.262444,43.5237315 C177.158252,43.0246848 177.080351,42.5859516 177.023872,42.218233 C176.975184,41.8524599 176.948893,41.4779317 176.948893,41.0975666 C176.416244,41.8777527 175.662552,42.5275836 174.700474,43.0392768 C173.736449,43.5538883 172.821111,43.8058437 171.564957,43.8058437 C170.053677,43.8058437 168.880293,43.4352066 168.042856,42.6812861 C167.207368,41.9273656 166.787676,40.9078705 166.787676,39.616964 C166.787676,38.3289759 167.396278,37.2822423 168.608613,36.4816274 C169.821921,35.678094 171.38968,35.2792457 173.329416,35.2792457 L176.948893,35.2792457 L176.948893,33.4922109 C176.948893,32.4629877 176.597364,31.6545904 175.897229,31.0670188 C175.193198,30.48042 174.205802,30.1827429 172.925304,30.1827429 C171.754841,30.1827429 170.806396,30.4541543 170.083864,30.9833579 C169.367174,31.5222895 169.006882,32.1906036 169.006882,32.9960825 L167.418674,32.9960825 L167.385566,32.9192313 C167.328114,31.8335857 167.825707,30.880241 168.883214,30.0582245 C169.934878,29.2362079 171.3147,28.8227676 173.011969,28.8227676 C174.703395,28.8227676 176.072506,29.2293983 177.105668,30.040714 C178.13591,30.8452202 178.653952,32.0067442 178.653952,33.5252861 L178.653952,40.6189487 C178.653952,41.1277234 178.677322,41.6199606 178.74159,42.0995513 C178.806832,42.5801148 178.911025,43.0597056 179.050273,43.5237315 L177.262444,43.5237315 L177.262444,43.5237315 L177.262444,43.5237315 Z M171.754841,42.3943099 C173.073316,42.3943099 174.020787,42.0995513 174.989681,41.5178165 C175.950786,40.9390001 176.605154,40.1841068 176.948893,39.2706469 L176.948893,36.5098386 L173.312862,36.5098386 C171.923302,36.5098386 170.773288,36.8162708 169.868662,37.4359448 C168.962089,38.0536733 168.502473,38.801757 168.502473,39.670468 C168.502473,40.4895662 168.793628,41.1462066 169.372043,41.6433078 C169.952406,42.1452729 170.745049,42.3943099 171.754841,42.3943099 L171.754841,42.3943099 L171.754841,42.3943099 Z" id="Fill-24"></path>
                            <path d="M1.31515981,4.80237314 C1.47777823,4.7517875 1.6520818,4.72649468 1.83709676,4.72649468 C2.23926087,4.72649468 2.6881656,4.84906757 3.16141441,5.10880535 L27.561967,18.5120532 L21.3026186,24.7681343 L1.31515981,4.80237314 Z M27.5639146,18.5120532 L35.9246435,23.1046452 C37.6141222,24.032697 37.6141222,25.5473477 35.9246435,26.4792907 L27.595075,31.0543724 L21.3026186,24.7681343 L27.5639146,18.5120532 Z M1.31418605,4.80237314 L21.3026186,24.7710527 L1.28302563,44.770862 C0.561467265,44.5247434 0.0960085632,43.7844421 0.0960085632,42.6628029 L0.0911397483,6.92113302 C0.0911397483,5.78587463 0.572178658,5.0348725 1.31418605,4.80237314 Z M21.3026186,24.7710527 L27.5921537,31.0543724 L3.16141441,44.4761034 C2.6881656,44.7358412 2.23926087,44.8593868 1.83807053,44.8593868 C1.64039664,44.8593868 1.45440791,44.82923 1.28302563,44.770862 L21.3026186,24.7710527 Z" id="Combined-Shape"></path>
                            <path d="M53.7805352,0.954946436 L58.3504048,0.954946436 C59.2754796,0.954946436 60.0866242,1.06000891 60.7838385,1.26916106 C61.480079,1.479286 62.0847858,1.7584798 62.5960114,2.10966085 C63.1082107,2.46181469 63.5337451,2.86552698 63.8735884,3.3217705 C64.2124579,3.77704122 64.4802427,4.24495834 64.6779166,4.72552188 C64.8746167,5.20608542 65.0167861,5.68664896 65.103451,6.16721249 C65.1901159,6.64777603 65.2329615,7.09137314 65.2329615,7.49800383 C65.2329615,8.33655801 65.0781332,9.14690098 64.7704241,9.92903273 C64.4617412,10.7111645 64.0050464,11.4076898 63.4013133,12.0176358 C62.7966065,12.6275818 62.0477828,13.1169006 61.1538684,13.4865648 C60.2589802,13.8562291 59.2258177,14.0410612 58.0543808,14.0410612 L53.7805352,14.0410612 L53.7805352,0.954946436 L53.7805352,0.954946436 L53.7805352,0.954946436 Z M55.5566788,12.3775721 L57.7953599,12.3775721 C58.5471049,12.3775721 59.2598994,12.2764008 59.9327696,12.0730854 C60.6046661,11.8697701 61.1937927,11.5643107 61.6991757,11.15768 C62.2045586,10.7510493 62.605749,10.2432474 62.9017729,9.63330132 C63.1977969,9.0233553 63.3458089,8.3112652 63.3458089,7.49800383 C63.3458089,7.07969953 63.2776454,6.58940799 63.1422924,6.0290748 C63.0059656,5.4677688 62.7508397,4.93564683 62.3739934,4.42979047 C61.9981209,3.92490692 61.4771577,3.49590182 60.8111038,3.14569357 C60.14505,2.79353973 59.2813222,2.6184356 58.2208943,2.6184356 L55.5566788,2.6184356 L55.5566788,12.3775721 L55.5566788,12.3775721 L55.5566788,12.3775721 Z" id="Fill-63"></path>
                            <path d="M66.5650693,9.66053974 C66.5650693,9.02043689 66.6848421,8.42216447 66.9253616,7.86766809 C67.165881,7.3131717 67.4959867,6.82677136 67.9156785,6.40749426 C68.3343966,5.98918997 68.8280944,5.65941054 69.3957982,5.41912877 C69.9625283,5.178847 70.5730777,5.05821971 71.2274464,5.05821971 C71.8808413,5.05821971 72.4913907,5.178847 73.0590945,5.41912877 C73.6258246,5.65941054 74.1195224,5.98918997 74.5392143,6.40749426 C74.9579323,6.82677136 75.288038,7.3131717 75.5285574,7.86766809 C75.7690769,8.42216447 75.8898235,9.02043689 75.8898235,9.66053974 C75.8898235,10.3016154 75.7690769,10.9018334 75.5285574,11.4631394 C75.288038,12.0234726 74.9579323,12.5098729 74.5392143,12.9233132 C74.1195224,13.3357807 73.6258246,13.661669 73.0590945,13.9019507 C72.4913907,14.1422325 71.8808413,14.2628598 71.2274464,14.2628598 C70.5730777,14.2628598 69.9625283,14.1422325 69.3957982,13.9019507 C68.8280944,13.661669 68.3343966,13.3357807 67.9156785,12.9233132 C67.4959867,12.5098729 67.165881,12.0234726 66.9253616,11.4631394 C66.6848421,10.9018334 66.5650693,10.3016154 66.5650693,9.66053974 L66.5650693,9.66053974 L66.5650693,9.66053974 Z M68.3412129,9.66053974 C68.3412129,10.1041369 68.4084026,10.5136859 68.5447294,10.8901598 C68.6800824,11.2666337 68.87094,11.5866851 69.1182758,11.8503141 C69.3646378,12.1158887 69.6665043,12.3250408 70.0248491,12.4797161 C70.3822201,12.6334186 70.7834105,12.7102699 71.2274464,12.7102699 C71.6714823,12.7102699 72.0716989,12.6334186 72.4300437,12.4797161 C72.7874147,12.3250408 73.0892812,12.1158887 73.336617,11.8503141 C73.582979,11.5866851 73.7738366,11.2666337 73.9101634,10.8901598 C74.0455164,10.5136859 74.1136798,10.1041369 74.1136798,9.66053974 C74.1136798,9.21694263 74.0455164,8.80739355 73.9101634,8.43091968 C73.7738366,8.05639142 73.582979,7.73536719 73.336617,7.46979261 C73.0892812,7.20616362 72.7874147,6.99603867 72.4300437,6.84233617 C72.0716989,6.68766086 71.6714823,6.6108096 71.2274464,6.6108096 C70.7834105,6.6108096 70.3822201,6.68766086 70.0248491,6.84233617 C69.6665043,6.99603867 69.3646378,7.20616362 69.1182758,7.46979261 C68.87094,7.73536719 68.6800824,8.05639142 68.5447294,8.43091968 C68.4084026,8.80739355 68.3412129,9.21694263 68.3412129,9.66053974 L68.3412129,9.66053974 L68.3412129,9.66053974 Z" id="Fill-64"></path>
                            <polyline id="Fill-65" points="76.5558774 5.28001827 78.4245285 5.28001827 80.394451 11.8230757 80.431454 11.8230757 82.5318608 5.28001827 84.3080044 5.28001827 86.528184 11.8230757 86.565187 11.8230757 88.4338382 5.28001827 90.2099818 5.28001827 87.3792528 14.0410612 85.6956167 14.0410612 83.373192 7.49800383 83.3352152 7.49800383 81.2182545 14.0410612 79.4421108 14.0410612 76.5558774 5.28001827"></polyline>
                            <path d="M91.2830686,5.28001827 L92.9472295,5.28001827 L92.9472295,6.62929282 L92.9852063,6.62929282 C93.1945653,6.16040289 93.5577789,5.78295622 94.0767946,5.49306162 C94.5948365,5.20316702 95.192727,5.05821971 95.870466,5.05821971 C96.2901578,5.05821971 96.6942695,5.12242456 97.0828009,5.25277985 C97.4713323,5.38216234 97.8111756,5.58255928 98.101357,5.85299787 C98.3895908,6.12343646 98.6213464,6.47267191 98.7937024,6.896813 C98.9670323,7.3228997 99.0536972,7.82389206 99.0536972,8.40368126 L99.0536972,14.0410612 L97.3875887,14.0410612 L97.3875887,8.86576159 C97.3875887,8.4591309 97.3320842,8.11086826 97.2210752,7.82097365 C97.11104,7.53205185 96.9630281,7.29760689 96.7770393,7.11958436 C96.5929981,6.94058904 96.379744,6.81120654 96.1392246,6.73046409 C95.8987051,6.65069443 95.6494218,6.6108096 95.3894271,6.6108096 C95.044715,6.6108096 94.724347,6.66625924 94.428323,6.77715852 C94.1313253,6.8890306 93.8732781,7.06316192 93.6502864,7.30344369 C93.4292422,7.54372546 93.2559124,7.84918487 93.1322445,8.21884913 C93.0095504,8.58851339 92.9472295,9.0262737 92.9472295,9.53115725 L92.9472295,14.0410612 L91.2830686,14.0410612 L91.2830686,5.28001827" id="Fill-66"></path>
                            <polygon id="Fill-67" points="101.329381 0.0677522132 102.994516 0.0677522132 102.994516 14.0410612 101.329381 14.0410612"></polygon>
                            <path d="M104.844666,9.66053974 C104.844666,9.02043689 104.964438,8.42216447 105.204958,7.86766809 C105.446451,7.3131717 105.775583,6.82677136 106.195275,6.40749426 C106.614967,5.98918997 107.107691,5.65941054 107.675395,5.41912877 C108.242125,5.178847 108.853648,5.05821971 109.506069,5.05821971 C110.160438,5.05821971 110.770987,5.178847 111.338691,5.41912877 C111.905421,5.65941054 112.399119,5.98918997 112.818811,6.40749426 C113.237529,6.82677136 113.567634,7.3131717 113.808154,7.86766809 C114.048673,8.42216447 114.168446,9.02043689 114.168446,9.66053974 C114.168446,10.3016154 114.048673,10.9018334 113.808154,11.4631394 C113.567634,12.0234726 113.237529,12.5098729 112.818811,12.9233132 C112.399119,13.3357807 111.905421,13.661669 111.338691,13.9019507 C110.770987,14.1422325 110.160438,14.2628598 109.506069,14.2628598 C108.853648,14.2628598 108.242125,14.1422325 107.675395,13.9019507 C107.107691,13.661669 106.614967,13.3357807 106.195275,12.9233132 C105.775583,12.5098729 105.446451,12.0234726 105.204958,11.4631394 C104.964438,10.9018334 104.844666,10.3016154 104.844666,9.66053974 L104.844666,9.66053974 L104.844666,9.66053974 Z M106.620809,9.66053974 C106.620809,10.1041369 106.687999,10.5136859 106.823352,10.8901598 C106.959679,11.2666337 107.150536,11.5866851 107.396898,11.8503141 C107.644234,12.1158887 107.946101,12.3250408 108.304445,12.4797161 C108.661816,12.6334186 109.062033,12.7102699 109.506069,12.7102699 C109.950105,12.7102699 110.352269,12.6334186 110.70964,12.4797161 C111.067011,12.3250408 111.368878,12.1158887 111.61524,11.8503141 C111.862575,11.5866851 112.054407,11.2666337 112.18976,10.8901598 C112.325113,10.5136859 112.393276,10.1041369 112.393276,9.66053974 C112.393276,9.21694263 112.325113,8.80739355 112.18976,8.43091968 C112.054407,8.05639142 111.862575,7.73536719 111.61524,7.46979261 C111.368878,7.20616362 111.067011,6.99603867 110.70964,6.84233617 C110.352269,6.68766086 109.950105,6.6108096 109.506069,6.6108096 C109.062033,6.6108096 108.661816,6.68766086 108.304445,6.84233617 C107.946101,6.99603867 107.644234,7.20616362 107.396898,7.46979261 C107.150536,7.73536719 106.959679,8.05639142 106.823352,8.43091968 C106.687999,8.80739355 106.620809,9.21694263 106.620809,9.66053974 L106.620809,9.66053974 L106.620809,9.66053974 Z" id="Fill-68"></path>
                            <path d="M115.926088,6.35204462 C116.395442,5.92012112 116.936854,5.59715129 117.55422,5.38216234 C118.170612,5.16620059 118.787978,5.05821971 119.40437,5.05821971 C120.046079,5.05821971 120.598203,5.13896217 121.06074,5.29850148 C121.522304,5.4590136 121.902072,5.67400255 122.199069,5.94541394 C122.494119,6.21682533 122.713216,6.52714875 122.854412,6.87930259 C122.996581,7.22951084 123.067666,7.5972295 123.067666,7.97856736 L123.067666,12.4515049 C123.067666,12.7598827 123.073508,13.0429677 123.086167,13.3017327 C123.097853,13.5604977 123.117328,13.8075891 123.141672,14.0410612 L121.661552,14.0410612 C121.624549,13.5974641 121.606048,13.153867 121.606048,12.7102699 L121.569045,12.7102699 C121.199015,13.2774127 120.760821,13.6782066 120.255438,13.9116787 C119.750055,14.1451509 119.16385,14.2628598 118.497796,14.2628598 C118.090763,14.2628598 117.702232,14.2074101 117.332202,14.0965109 C116.962172,13.9856116 116.638883,13.8202355 116.360387,13.5974641 C116.082864,13.3756656 115.864741,13.1013358 115.70407,12.7744747 C115.544373,12.4485865 115.464525,12.070167 115.464525,11.6382435 C115.464525,11.0711007 115.589166,10.5973468 115.842345,10.2150361 C116.095523,9.83369827 116.440235,9.52142925 116.879402,9.28114748 C117.316622,9.04086571 117.828821,8.86965279 118.415026,8.76361751 C119.000258,8.65952784 119.626388,8.6069966 120.292441,8.6069966 L121.51354,8.6069966 L121.51354,8.23733235 C121.51354,8.01553379 121.470695,7.79373523 121.38403,7.57193668 C121.298339,7.35013812 121.167854,7.14974118 120.995498,6.97074586 C120.822168,6.79272333 120.606967,6.65069443 120.347946,6.54660476 C120.089899,6.44154229 119.780242,6.38901105 119.422871,6.38901105 C119.102503,6.38901105 118.822059,6.42014067 118.58154,6.48045431 C118.34102,6.54368636 118.12095,6.61956481 117.92425,6.71295368 C117.72755,6.80536974 117.547404,6.91335062 117.387706,7.0359235 C117.227036,7.15946919 117.073181,7.27620527 116.926143,7.38710455 L115.926088,6.35204462 L115.926088,6.35204462 L115.926088,6.35204462 Z M120.625468,9.82688866 C120.230121,9.82688866 119.826983,9.84926308 119.413133,9.89109351 C119.000258,9.93486954 118.624385,10.0175576 118.285516,10.1411033 C117.945673,10.264649 117.66815,10.4368347 117.452949,10.6586332 C117.236773,10.8804318 117.129659,11.1644896 117.129659,11.508861 C117.129659,12.0147174 117.29812,12.3775721 117.637964,12.5993706 C117.976833,12.8211692 118.435475,12.9320684 119.015838,12.9320684 C119.472533,12.9320684 119.860091,12.8552172 120.181432,12.7005419 C120.5018,12.5468394 120.760821,12.3474152 120.958495,12.1003239 C121.155195,11.8542053 121.298339,11.5798755 121.38403,11.2773345 C121.470695,10.9767391 121.51354,10.6771165 121.51354,10.381385 L121.51354,9.82688866 L120.625468,9.82688866 L120.625468,9.82688866 L120.625468,9.82688866 Z" id="Fill-69"></path>
                            <path d="M133.910517,14.0410612 L132.245382,14.0410612 L132.245382,12.7842027 L132.208379,12.7842027 C131.887037,13.2521199 131.446896,13.6169201 130.886009,13.8747123 C130.323174,14.1334773 129.74768,14.2628598 129.154658,14.2628598 C128.476919,14.2628598 127.863449,14.1451509 127.314246,13.9116787 C126.765044,13.6782066 126.296664,13.3513455 125.908132,12.9320684 C125.519601,12.5137641 125.220656,12.026391 125.010323,11.4718946 C124.800964,10.9173982 124.696771,10.3142618 124.696771,9.66053974 C124.696771,9.00779049 124.800964,8.40076286 125.010323,7.84042967 C125.220656,7.27912367 125.519601,6.79272333 125.908132,6.37928304 C126.296664,5.96681555 126.765044,5.64384573 127.314246,5.40940076 C127.863449,5.1759286 128.476919,5.05821971 129.154658,5.05821971 C129.784683,5.05821971 130.376731,5.19052061 130.930802,5.45609519 C131.486821,5.72069698 131.911381,6.08063323 132.208379,6.53687675 L132.245382,6.53687675 L132.245382,0.0677522132 L133.910517,0.0677522132 L133.910517,14.0410612 L133.910517,14.0410612 L133.910517,14.0410612 Z M129.358175,12.7102699 C129.802211,12.7102699 130.203401,12.6334186 130.560772,12.4797161 C130.919117,12.3250408 131.220983,12.1158887 131.467345,11.8503141 C131.714681,11.5866851 131.905539,11.2666337 132.041865,10.8901598 C132.177219,10.5136859 132.245382,10.1041369 132.245382,9.66053974 C132.245382,9.21694263 132.177219,8.80739355 132.041865,8.43091968 C131.905539,8.05639142 131.714681,7.73536719 131.467345,7.46979261 C131.220983,7.20616362 130.919117,6.99603867 130.560772,6.84233617 C130.203401,6.68766086 129.802211,6.6108096 129.358175,6.6108096 C128.914139,6.6108096 128.513922,6.68766086 128.156551,6.84233617 C127.798206,6.99603867 127.49634,7.20616362 127.249004,7.46979261 C127.002642,7.73536719 126.811785,8.05639142 126.675458,8.43091968 C126.540105,8.80739355 126.471941,9.21694263 126.471941,9.66053974 C126.471941,10.1041369 126.540105,10.5136859 126.675458,10.8901598 C126.811785,11.2666337 127.002642,11.5866851 127.249004,11.8503141 C127.49634,12.1158887 127.798206,12.3250408 128.156551,12.4797161 C128.513922,12.6334186 128.914139,12.7102699 129.358175,12.7102699 L129.358175,12.7102699 L129.358175,12.7102699 Z" id="Fill-70"></path>
                            <path d="M140.404542,9.66053974 C140.404542,9.02043689 140.524315,8.42216447 140.764834,7.86766809 C141.005354,7.3131717 141.335459,6.82677136 141.755151,6.40749426 C142.173869,5.98918997 142.667567,5.65941054 143.234297,5.41912877 C143.802001,5.178847 144.41255,5.05821971 145.065945,5.05821971 C145.720314,5.05821971 146.330863,5.178847 146.898567,5.41912877 C147.465297,5.65941054 147.958995,5.98918997 148.377713,6.40749426 C148.797405,6.82677136 149.127511,7.3131717 149.36803,7.86766809 C149.60855,8.42216447 149.728322,9.02043689 149.728322,9.66053974 C149.728322,10.3016154 149.60855,10.9018334 149.36803,11.4631394 C149.127511,12.0234726 148.797405,12.5098729 148.377713,12.9233132 C147.958995,13.3357807 147.465297,13.661669 146.898567,13.9019507 C146.330863,14.1422325 145.720314,14.2628598 145.065945,14.2628598 C144.41255,14.2628598 143.802001,14.1422325 143.234297,13.9019507 C142.667567,13.661669 142.173869,13.3357807 141.755151,12.9233132 C141.335459,12.5098729 141.005354,12.0234726 140.764834,11.4631394 C140.524315,10.9018334 140.404542,10.3016154 140.404542,9.66053974 L140.404542,9.66053974 L140.404542,9.66053974 Z M142.179712,9.66053974 C142.179712,10.1041369 142.246901,10.5136859 142.383228,10.8901598 C142.519555,11.2666337 142.710413,11.5866851 142.956775,11.8503141 C143.20411,12.1158887 143.505003,12.3250408 143.864322,12.4797161 C144.221693,12.6334186 144.621909,12.7102699 145.065945,12.7102699 C145.509981,12.7102699 145.911172,12.6334186 146.268543,12.4797161 C146.625914,12.3250408 146.928754,12.1158887 147.175116,11.8503141 C147.422452,11.5866851 147.613309,11.2666337 147.749636,10.8901598 C147.884015,10.5136859 147.953152,10.1041369 147.953152,9.66053974 C147.953152,9.21694263 147.884015,8.80739355 147.749636,8.43091968 C147.613309,8.05639142 147.422452,7.73536719 147.175116,7.46979261 C146.928754,7.20616362 146.625914,6.99603867 146.268543,6.84233617 C145.911172,6.68766086 145.509981,6.6108096 145.065945,6.6108096 C144.621909,6.6108096 144.221693,6.68766086 143.864322,6.84233617 C143.505003,6.99603867 143.20411,7.20616362 142.956775,7.46979261 C142.710413,7.73536719 142.519555,8.05639142 142.383228,8.43091968 C142.246901,8.80739355 142.179712,9.21694263 142.179712,9.66053974 L142.179712,9.66053974 L142.179712,9.66053974 Z" id="Fill-71"></path>
                            <path d="M151.448962,5.28001827 L153.114096,5.28001827 L153.114096,6.62929282 L153.151099,6.62929282 C153.360458,6.16040289 153.724646,5.78295622 154.242688,5.49306162 C154.760729,5.20316702 155.35862,5.05821971 156.037333,5.05821971 C156.456051,5.05821971 156.860162,5.12242456 157.248694,5.25277985 C157.637225,5.38216234 157.977069,5.58255928 158.26725,5.85299787 C158.555484,6.12343646 158.787239,6.47267191 158.960569,6.896813 C159.132925,7.3228997 159.21959,7.82389206 159.21959,8.40368126 L159.21959,14.0410612 L157.553482,14.0410612 L157.553482,8.86576159 C157.553482,8.4591309 157.498951,8.11086826 157.386968,7.82097365 C157.276933,7.53205185 157.128921,7.29760689 156.942932,7.11958436 C156.758891,6.94058904 156.545637,6.81120654 156.305118,6.73046409 C156.064598,6.65069443 155.815315,6.6108096 155.55532,6.6108096 C155.210608,6.6108096 154.89024,6.66625924 154.594216,6.77715852 C154.297218,6.8890306 154.039171,7.06316192 153.816179,7.30344369 C153.595135,7.54372546 153.421805,7.84918487 153.299111,8.21884913 C153.175443,8.58851339 153.114096,9.0262737 153.114096,9.53115725 L153.114096,14.0410612 L151.448962,14.0410612 L151.448962,5.28001827" id="Fill-72"></path>
                        </g>
                        <use id="bg" stroke="#282828" mask="url(#mask-2)" stroke-width="4" xlink:href="#path-1"></use>
                    </g>
                </g>
            </g>
        </g>
    </g>
</svg>