<?xml version="1.0" encoding="UTF-8"?>
<svg width="29px" height="21px" viewBox="0 0 29 21" version="1.1" xmlns="http://www.w3.org/2000/svg" xmlns:xlink="http://www.w3.org/1999/xlink">
    <!-- Generator: Sketch 42 (36781) - http://www.bohemiancoding.com/sketch -->
    <title>icon-menu</title>
    <desc>Created with Sketch.</desc>
    <defs></defs>
    <g id="Sections" stroke="none" stroke-width="1" fill="none" fill-rule="evenodd">
        <g id="HEADERS" transform="translate(-1337.000000, -30.000000)" fill="#FBFBFB">
            <g id="Header_01">
                <g id="Nav" transform="translate(230.000000, 30.000000)">
                    <g id="Icons-/-Menu" transform="translate(1107.000000, 0.000000)">
                        <path d="M26.965368,11.9130625 L2.57012987,11.9130625 C1.44701299,11.9130625 0.537532468,11.2705 0.537532468,10.477 C0.537532468,9.6835 1.44701299,9.0409375 2.56809524,9.0409375 L26.965368,9.0409375 C28.0884848,9.0409375 28.9959307,9.6835 28.9959307,10.477 C28.9979654,11.2705 28.0884848,11.9130625 26.965368,11.9130625 L26.965368,11.9130625 Z M26.965368,3.2938125 L2.57012987,3.29525 C1.44701299,3.29525 0.537532468,2.6498125 0.537532468,1.85775 C0.537532468,1.0656875 1.44701299,0.4216875 2.56809524,0.42025 L26.965368,0.4216875 C28.0884848,0.42025 28.9959307,1.0656875 28.9959307,1.85775 C28.9979654,2.6498125 28.0884848,3.2938125 26.965368,3.2938125 L26.965368,3.2938125 Z M2.56809524,17.6601875 L26.965368,17.6601875 C28.0884848,17.6601875 28.9959307,18.3041875 28.9959307,19.0976875 C28.9979654,19.88975 28.0884848,20.5323125 26.965368,20.5323125 L2.57012987,20.5323125 C1.44701299,20.5323125 0.537532468,19.88975 0.537532468,19.0976875 C0.537532468,18.3041875 1.44701299,17.661625 2.56809524,17.6601875 L2.56809524,17.6601875 Z" id="Shape"></path>
                    </g>
                </g>
            </g>
        </g>
    </g>
</svg>